<svg id="svg" version="1.1" xmlns="http://www.w3.org/2000/svg" xmlns:xlink="http://www.w3.org/1999/xlink" width="400" height="400" viewBox="0, 0, 400,400"><g id="svgg"><path id="path0" d="M235.372 161.328 C 235.261 161.619,235.221 163.644,235.285 165.828 L 235.400 169.800 238.200 169.920 C 239.740 169.987,241.171 170.212,241.380 170.420 C 241.589 170.629,242.703 170.800,243.856 170.800 C 245.009 170.800,246.064 170.980,246.200 171.200 C 246.336 171.420,246.887 171.600,247.424 171.600 C 247.961 171.600,248.400 171.780,248.400 172.000 C 248.400 172.220,248.676 172.400,249.013 172.400 C 249.787 172.400,252.400 174.980,252.400 175.744 C 252.400 176.058,252.686 176.424,253.036 176.559 C 255.704 177.582,254.668 167.590,251.772 164.373 C 249.520 161.871,236.119 159.383,235.372 161.328 M74.572 162.928 C 74.461 163.219,74.421 165.244,74.485 167.428 L 74.600 171.400 90.700 171.505 L 106.800 171.609 106.800 167.005 L 106.800 162.400 90.787 162.400 C 77.886 162.400,74.735 162.503,74.572 162.928 M287.600 167.000 L 287.600 171.613 298.500 171.506 L 309.400 171.400 309.400 167.000 L 309.400 162.600 298.500 162.494 L 287.600 162.387 287.600 167.000 M331.372 162.928 C 331.261 163.219,331.221 165.244,331.285 167.428 L 331.400 171.400 342.300 171.506 L 353.200 171.613 353.200 167.006 L 353.200 162.400 342.387 162.400 C 333.796 162.400,331.533 162.509,331.372 162.928 M153.800 163.176 C 142.090 165.111,133.262 179.220,135.455 192.492 C 135.784 194.477,136.400 194.010,136.400 191.776 C 136.400 190.799,136.580 190.000,136.800 190.000 C 137.020 190.000,137.200 189.460,137.200 188.800 C 137.200 188.140,137.380 187.600,137.600 187.600 C 137.820 187.600,138.000 187.347,138.000 187.038 C 138.000 186.372,139.668 183.059,140.100 182.867 C 140.265 182.793,140.400 182.465,140.400 182.138 C 140.400 181.342,146.972 174.800,147.771 174.800 C 148.117 174.800,148.400 174.620,148.400 174.400 C 148.400 174.180,148.839 174.000,149.376 174.000 C 149.913 174.000,150.464 173.820,150.600 173.600 C 150.736 173.380,151.377 173.200,152.024 173.200 C 152.671 173.200,153.200 173.020,153.200 172.800 C 153.200 172.552,155.333 172.400,158.800 172.400 C 162.267 172.400,164.400 172.552,164.400 172.800 C 164.400 173.020,164.940 173.200,165.600 173.200 C 166.260 173.200,166.800 173.380,166.800 173.600 C 166.800 173.820,167.160 174.000,167.600 174.000 C 168.040 174.000,168.400 174.180,168.400 174.400 C 168.400 174.620,168.760 174.800,169.200 174.800 C 169.640 174.800,170.000 174.950,170.000 175.132 C 170.000 175.315,170.493 175.720,171.095 176.032 C 172.517 176.769,175.600 179.828,175.600 180.501 C 175.600 180.788,175.960 181.283,176.400 181.600 C 176.840 181.917,177.200 182.497,177.200 182.888 C 177.200 183.280,177.380 183.600,177.600 183.600 C 177.820 183.600,178.000 183.960,178.000 184.400 C 178.000 184.840,178.180 185.200,178.400 185.200 C 178.620 185.200,178.800 185.560,178.800 186.000 C 178.800 186.440,178.980 186.800,179.200 186.800 C 179.420 186.800,179.600 187.340,179.600 188.000 C 179.600 188.660,179.780 189.200,180.000 189.200 C 180.220 189.200,180.400 189.920,180.400 190.800 C 180.400 191.680,180.574 192.400,180.786 192.400 C 182.546 192.400,182.184 185.480,180.060 178.526 C 176.686 167.480,165.901 161.176,153.800 163.176 M277.075 177.300 C 274.781 186.748,265.445 197.600,259.612 197.600 C 258.397 197.600,261.586 202.573,263.777 204.094 C 264.404 204.529,266.000 204.462,266.000 204.000 C 266.000 203.780,266.282 203.600,266.627 203.600 C 267.397 203.600,273.200 197.736,273.200 196.959 C 273.200 196.652,273.380 196.400,273.600 196.400 C 273.820 196.400,274.000 196.040,274.000 195.600 C 274.000 195.160,274.180 194.800,274.400 194.800 C 274.620 194.800,274.800 194.440,274.800 194.000 C 274.800 193.560,274.980 193.200,275.200 193.200 C 275.420 193.200,275.600 192.840,275.600 192.400 C 275.600 191.960,275.780 191.600,276.000 191.600 C 276.220 191.600,276.400 191.071,276.400 190.424 C 276.400 189.777,276.580 189.136,276.800 189.000 C 277.020 188.864,277.200 187.784,277.200 186.600 C 277.200 185.416,277.380 184.336,277.600 184.200 C 278.093 183.895,278.138 176.400,277.647 176.400 C 277.452 176.400,277.195 176.805,277.075 177.300 M204.682 198.430 C 204.307 199.297,204.000 200.265,204.000 200.583 C 204.000 205.736,198.290 216.880,192.280 223.455 C 183.378 233.196,172.540 237.713,158.200 237.661 C 151.065 237.635,148.500 237.252,142.051 235.247 C 130.293 231.592,118.375 219.130,114.464 206.400 C 113.084 201.909,112.897 201.171,112.612 199.100 C 112.115 195.484,111.600 197.164,111.600 202.400 C 111.600 205.600,111.754 207.600,112.000 207.600 C 112.220 207.600,112.400 208.579,112.400 209.776 C 112.400 210.973,112.580 212.064,112.800 212.200 C 113.020 212.336,113.200 212.977,113.200 213.624 C 113.200 214.271,113.380 214.800,113.600 214.800 C 113.820 214.800,114.000 215.340,114.000 216.000 C 114.000 216.660,114.180 217.200,114.400 217.200 C 114.620 217.200,114.800 217.740,114.800 218.400 C 114.800 219.060,114.980 219.600,115.200 219.600 C 115.420 219.600,115.600 219.960,115.600 220.400 C 115.600 220.840,115.780 221.200,116.000 221.200 C 116.220 221.200,116.400 221.560,116.400 222.000 C 116.400 222.440,116.580 222.800,116.800 222.800 C 117.020 222.800,117.200 223.160,117.200 223.600 C 117.200 224.040,117.380 224.400,117.600 224.400 C 117.820 224.400,118.000 224.636,118.000 224.925 C 118.000 225.213,118.360 225.836,118.800 226.308 C 119.240 226.780,119.600 227.332,119.600 227.535 C 119.600 227.738,120.320 228.645,121.200 229.552 C 122.080 230.459,122.800 231.394,122.800 231.631 C 122.800 232.162,127.943 237.200,128.486 237.200 C 128.702 237.200,129.383 237.740,130.000 238.400 C 130.617 239.060,131.369 239.600,131.672 239.600 C 131.975 239.600,132.483 239.960,132.800 240.400 C 133.117 240.840,133.697 241.200,134.088 241.200 C 134.480 241.200,134.800 241.380,134.800 241.600 C 134.800 241.820,135.160 242.000,135.600 242.000 C 136.040 242.000,136.400 242.180,136.400 242.400 C 136.400 242.620,136.760 242.800,137.200 242.800 C 137.640 242.800,138.000 242.980,138.000 243.200 C 138.000 243.420,138.349 243.600,138.776 243.600 C 139.203 243.600,139.664 243.780,139.800 244.000 C 139.936 244.220,140.487 244.400,141.024 244.400 C 141.561 244.400,142.000 244.580,142.000 244.800 C 142.000 245.020,142.529 245.200,143.176 245.200 C 143.823 245.200,144.464 245.380,144.600 245.600 C 144.736 245.820,145.647 246.000,146.624 246.000 C 147.601 246.000,148.400 246.180,148.400 246.400 C 148.400 246.635,149.792 246.800,151.776 246.800 C 153.633 246.800,155.264 246.980,155.400 247.200 C 155.536 247.420,156.976 247.600,158.600 247.600 C 160.224 247.600,161.664 247.420,161.800 247.200 C 161.936 246.980,163.477 246.800,165.224 246.800 C 167.075 246.800,168.400 246.633,168.400 246.400 C 168.400 246.180,169.199 246.000,170.176 246.000 C 171.153 246.000,172.064 245.820,172.200 245.600 C 172.336 245.380,172.977 245.200,173.624 245.200 C 174.271 245.200,174.800 245.020,174.800 244.800 C 174.800 244.580,175.239 244.400,175.776 244.400 C 176.313 244.400,176.864 244.220,177.000 244.000 C 177.136 243.780,177.597 243.600,178.024 243.600 C 178.451 243.600,178.800 243.420,178.800 243.200 C 178.800 242.980,179.160 242.800,179.600 242.800 C 180.040 242.800,180.400 242.620,180.400 242.400 C 180.400 242.180,180.760 242.000,181.200 242.000 C 181.640 242.000,182.000 241.820,182.000 241.600 C 182.000 241.380,182.236 241.200,182.525 241.200 C 182.813 241.200,183.436 240.840,183.908 240.400 C 184.380 239.960,184.932 239.600,185.135 239.600 C 185.338 239.600,186.245 238.880,187.152 238.000 C 188.059 237.120,188.969 236.400,189.174 236.400 C 189.661 236.400,194.000 232.061,194.000 231.574 C 194.000 231.369,194.720 230.459,195.600 229.552 C 196.480 228.645,197.200 227.738,197.200 227.535 C 197.200 227.332,197.560 226.780,198.000 226.308 C 198.440 225.836,198.800 225.213,198.800 224.925 C 198.800 224.636,198.980 224.400,199.200 224.400 C 199.420 224.400,199.600 224.040,199.600 223.600 C 199.600 223.160,199.780 222.800,200.000 222.800 C 200.220 222.800,200.400 222.440,200.400 222.000 C 200.400 221.560,200.580 221.200,200.800 221.200 C 201.020 221.200,201.200 220.840,201.200 220.400 C 201.200 219.960,201.380 219.600,201.600 219.600 C 201.820 219.600,202.000 219.251,202.000 218.824 C 202.000 218.397,202.180 217.936,202.400 217.800 C 202.620 217.664,202.800 217.113,202.800 216.576 C 202.800 216.039,202.980 215.600,203.200 215.600 C 203.420 215.600,203.600 214.880,203.600 214.000 C 203.600 213.120,203.780 212.400,204.000 212.400 C 204.220 212.400,204.400 211.691,204.400 210.824 C 204.400 209.957,204.580 209.136,204.800 209.000 C 205.025 208.861,205.200 206.937,205.200 204.600 C 205.200 202.263,205.375 200.339,205.600 200.200 C 206.074 199.907,206.141 197.334,205.682 197.051 C 205.508 196.943,205.058 197.564,204.682 198.430 M74.572 199.728 C 74.461 200.019,74.421 202.044,74.485 204.228 L 74.600 208.200 89.500 208.305 L 104.400 208.410 104.400 203.805 L 104.400 199.200 89.587 199.200 C 77.681 199.200,74.735 199.304,74.572 199.728 M235.350 201.387 C 234.511 203.572,235.479 211.166,236.747 212.350 C 237.436 212.994,238.000 213.681,238.000 213.876 C 238.000 214.072,238.720 215.028,239.600 216.000 C 240.480 216.972,241.200 217.928,241.200 218.124 C 241.200 218.319,241.740 218.983,242.400 219.600 C 243.060 220.217,243.600 220.937,243.600 221.200 C 243.600 221.463,244.140 222.183,244.800 222.800 C 245.460 223.417,246.000 224.097,246.000 224.312 C 246.000 224.527,246.720 225.445,247.600 226.352 C 248.480 227.259,249.200 228.198,249.200 228.440 C 249.200 228.681,249.740 229.383,250.400 230.000 C 251.060 230.617,251.600 231.281,251.600 231.476 C 251.600 231.672,252.320 232.628,253.200 233.600 C 254.080 234.572,254.800 235.528,254.800 235.724 C 254.800 235.919,255.340 236.583,256.000 237.200 C 256.660 237.817,257.200 238.537,257.200 238.800 C 257.200 239.063,257.740 239.783,258.400 240.400 C 259.060 241.017,259.600 241.684,259.600 241.882 C 259.600 242.081,260.209 242.909,260.954 243.722 L 262.308 245.200 276.554 245.200 C 292.769 245.200,292.135 245.368,288.800 241.961 C 287.700 240.838,286.800 239.751,286.800 239.546 C 286.800 239.341,286.131 238.504,285.314 237.687 L 283.828 236.200 273.314 236.071 L 262.801 235.941 261.203 233.871 C 254.544 225.240,245.533 213.592,243.201 210.600 C 241.657 208.620,239.317 205.586,238.001 203.857 C 236.158 201.436,235.549 200.868,235.350 201.387 M52.400 240.600 L 52.400 245.200 63.600 245.200 L 74.800 245.200 74.800 240.600 L 74.800 236.000 63.600 236.000 L 52.400 236.000 52.400 240.600 M213.200 240.600 L 213.200 245.200 224.400 245.200 L 235.600 245.200 235.600 240.600 L 235.600 236.000 224.400 236.000 L 213.200 236.000 213.200 240.600 M309.200 240.600 L 309.200 245.200 320.400 245.200 L 331.600 245.200 331.600 240.600 L 331.600 236.000 320.400 236.000 L 309.200 236.000 309.200 240.600 " stroke="none" fill="#44cbfb" fill-rule="evenodd"></path><path id="path1" d="M156.200 141.600 C 156.064 141.820,154.354 142.000,152.400 142.000 C 150.446 142.000,148.736 142.180,148.600 142.400 C 148.464 142.620,147.643 142.800,146.776 142.800 C 145.909 142.800,145.200 142.980,145.200 143.200 C 145.200 143.420,144.660 143.600,144.000 143.600 C 143.340 143.600,142.800 143.780,142.800 144.000 C 142.800 144.220,142.260 144.400,141.600 144.400 C 140.940 144.400,140.400 144.580,140.400 144.800 C 140.400 145.020,140.040 145.200,139.600 145.200 C 139.160 145.200,138.800 145.380,138.800 145.600 C 138.800 145.820,138.440 146.000,138.000 146.000 C 137.560 146.000,137.200 146.180,137.200 146.400 C 137.200 146.620,136.840 146.800,136.400 146.800 C 135.960 146.800,135.600 146.980,135.600 147.200 C 135.600 147.420,135.280 147.600,134.888 147.600 C 134.497 147.600,133.917 147.960,133.600 148.400 C 133.283 148.840,132.793 149.200,132.512 149.200 C 132.231 149.200,131.259 149.920,130.352 150.800 C 129.445 151.680,128.541 152.400,128.343 152.400 C 127.849 152.400,124.013 156.283,122.811 158.000 C 122.272 158.770,121.329 159.877,120.715 160.460 C 120.102 161.044,119.600 161.769,119.600 162.072 C 119.600 162.375,119.240 162.883,118.800 163.200 C 118.360 163.517,118.000 164.097,118.000 164.488 C 118.000 164.880,117.820 165.200,117.600 165.200 C 117.380 165.200,117.200 165.560,117.200 166.000 C 117.200 166.440,117.020 166.800,116.800 166.800 C 116.580 166.800,116.400 167.160,116.400 167.600 C 116.400 168.040,116.220 168.400,116.000 168.400 C 115.780 168.400,115.600 168.760,115.600 169.200 C 115.600 169.640,115.420 170.000,115.200 170.000 C 114.980 170.000,114.800 170.439,114.800 170.976 C 114.800 171.513,114.620 172.064,114.400 172.200 C 114.180 172.336,114.000 172.797,114.000 173.224 C 114.000 173.651,113.820 174.000,113.600 174.000 C 113.380 174.000,113.200 174.720,113.200 175.600 C 113.200 176.480,113.020 177.200,112.800 177.200 C 112.580 177.200,112.400 178.100,112.400 179.200 C 112.400 180.300,112.220 181.200,112.000 181.200 C 111.299 181.200,111.485 191.226,112.196 191.756 C 112.588 192.048,112.920 193.433,113.167 195.800 C 114.048 204.256,116.333 210.666,120.939 217.600 C 126.154 225.454,136.330 232.989,144.600 235.121 C 145.480 235.348,146.920 235.720,147.800 235.947 C 154.751 237.742,166.295 237.157,173.800 234.629 C 186.101 230.487,197.965 218.367,201.629 206.200 C 201.894 205.320,202.254 204.240,202.428 203.800 C 202.831 202.785,203.138 201.025,203.615 197.000 C 203.855 194.976,204.216 193.637,204.597 193.356 C 204.929 193.112,205.200 192.627,205.200 192.280 C 205.200 191.932,205.385 191.533,205.611 191.394 C 206.076 191.106,205.999 188.447,205.516 188.148 C 205.342 188.041,205.200 186.264,205.200 184.200 C 205.200 182.130,205.021 180.336,204.800 180.200 C 204.580 180.064,204.400 179.153,204.400 178.176 C 204.400 177.199,204.220 176.400,204.000 176.400 C 203.780 176.400,203.600 175.871,203.600 175.224 C 203.600 174.577,203.420 173.936,203.200 173.800 C 202.980 173.664,202.800 173.113,202.800 172.576 C 202.800 172.039,202.620 171.600,202.400 171.600 C 202.180 171.600,202.000 171.161,202.000 170.624 C 202.000 170.087,201.820 169.536,201.600 169.400 C 201.380 169.264,201.200 168.803,201.200 168.376 C 201.200 167.949,201.020 167.600,200.800 167.600 C 200.580 167.600,200.400 167.240,200.400 166.800 C 200.400 166.360,200.220 166.000,200.000 166.000 C 199.780 166.000,199.600 165.680,199.600 165.288 C 199.600 164.897,199.240 164.317,198.800 164.000 C 198.360 163.683,198.000 163.143,198.000 162.800 C 198.000 162.457,197.640 161.917,197.200 161.600 C 196.760 161.283,196.400 160.785,196.400 160.494 C 196.400 159.833,186.527 150.000,185.863 150.000 C 185.595 150.000,185.117 149.640,184.800 149.200 C 184.483 148.760,183.903 148.400,183.512 148.400 C 183.120 148.400,182.800 148.241,182.800 148.047 C 182.800 147.852,182.485 147.590,182.100 147.464 C 181.715 147.338,180.630 146.777,179.689 146.218 C 178.748 145.658,177.623 145.200,177.189 145.200 C 176.755 145.200,176.400 145.020,176.400 144.800 C 176.400 144.580,176.051 144.400,175.624 144.400 C 175.197 144.400,174.736 144.220,174.600 144.000 C 174.464 143.780,173.733 143.600,172.976 143.600 C 172.219 143.600,171.600 143.420,171.600 143.200 C 171.600 142.980,170.880 142.800,170.000 142.800 C 169.120 142.800,168.400 142.620,168.400 142.400 C 168.400 142.163,166.933 142.000,164.800 142.000 C 162.667 142.000,161.200 141.837,161.200 141.600 C 161.200 141.378,160.141 141.200,158.824 141.200 C 157.517 141.200,156.336 141.380,156.200 141.600 M52.400 147.957 C 52.400 151.461,52.517 152.359,53.000 152.545 C 53.528 152.747,53.600 157.745,53.600 194.187 L 53.600 235.600 63.400 235.600 L 73.200 235.600 73.200 217.424 C 73.200 203.322,73.312 199.175,73.700 198.924 C 73.975 198.746,80.680 198.510,88.600 198.400 L 103.000 198.200 103.114 193.882 C 103.202 190.534,103.359 189.514,103.814 189.339 C 104.283 189.159,104.400 188.167,104.400 184.357 L 104.400 179.600 89.600 179.600 C 76.711 179.600,74.800 179.677,74.800 180.200 C 74.800 181.147,73.639 180.899,73.394 179.900 C 73.273 179.405,73.225 175.220,73.287 170.600 L 73.400 162.200 89.500 162.095 L 105.600 161.991 105.600 157.395 C 105.600 153.577,105.701 152.800,106.200 152.800 C 106.699 152.800,106.800 152.022,106.800 148.200 L 106.800 143.600 79.600 143.600 L 52.400 143.600 52.400 147.957 M213.200 148.000 C 213.200 151.494,213.315 152.400,213.757 152.400 C 214.775 152.400,214.800 153.422,214.800 194.633 L 214.800 235.600 224.600 235.600 L 234.400 235.600 234.400 217.787 C 234.400 198.688,234.484 197.932,236.351 200.297 C 236.708 200.749,238.350 202.891,240.000 205.056 C 241.650 207.221,243.217 209.265,243.481 209.597 C 245.075 211.594,247.945 215.265,248.800 216.400 C 249.350 217.130,250.610 218.760,251.600 220.023 C 254.391 223.582,256.789 226.677,259.313 229.976 C 260.584 231.639,262.089 233.585,262.657 234.300 L 263.689 235.600 273.421 235.600 C 279.477 235.600,283.246 235.751,283.400 236.000 C 283.536 236.220,285.257 236.400,287.224 236.400 C 291.550 236.400,291.690 236.113,288.800 233.161 C 287.700 232.038,286.800 230.958,286.800 230.761 C 286.800 230.565,285.900 229.485,284.800 228.361 C 283.700 227.238,282.800 226.158,282.800 225.961 C 282.800 225.765,281.900 224.685,280.800 223.561 C 279.700 222.438,278.800 221.358,278.800 221.161 C 278.800 220.965,277.900 219.885,276.800 218.761 C 275.700 217.638,274.800 216.558,274.800 216.361 C 274.800 216.165,273.900 215.085,272.800 213.961 C 271.700 212.838,270.800 211.758,270.800 211.561 C 270.800 211.365,269.900 210.285,268.800 209.161 C 267.700 208.038,266.800 206.944,266.800 206.731 C 266.800 205.967,265.636 205.200,264.477 205.200 C 263.551 205.200,262.964 204.789,261.756 203.300 C 260.909 202.255,259.718 200.860,259.110 200.200 C 257.613 198.576,257.672 197.530,259.300 196.862 C 268.706 193.005,274.369 186.230,275.795 177.126 C 275.972 175.997,276.234 175.623,276.913 175.526 C 277.890 175.387,278.579 167.600,277.614 167.600 C 277.375 167.600,277.200 166.589,277.200 165.200 C 277.200 163.867,277.022 162.800,276.800 162.800 C 276.580 162.800,276.400 162.181,276.400 161.424 C 276.400 160.667,276.220 159.936,276.000 159.800 C 275.780 159.664,275.600 159.203,275.600 158.776 C 275.600 158.349,275.420 158.000,275.200 158.000 C 274.980 158.000,274.800 157.640,274.800 157.200 C 274.800 156.760,274.620 156.400,274.400 156.400 C 274.180 156.400,274.000 156.146,274.000 155.837 C 274.000 155.059,267.396 148.400,266.625 148.400 C 266.281 148.400,266.000 148.220,266.000 148.000 C 266.000 147.780,265.640 147.600,265.200 147.600 C 264.760 147.600,264.399 147.465,264.397 147.300 C 264.393 146.941,262.456 146.000,261.720 146.000 C 261.434 146.000,261.200 145.820,261.200 145.600 C 261.200 145.380,260.660 145.200,260.000 145.200 C 259.340 145.200,258.800 145.020,258.800 144.800 C 258.800 144.580,258.080 144.400,257.200 144.400 C 256.320 144.400,255.600 144.220,255.600 144.000 C 255.600 143.738,248.267 143.600,234.400 143.600 L 213.200 143.600 213.200 148.000 M287.600 148.157 C 287.600 151.839,287.715 152.759,288.200 152.945 C 288.683 153.130,288.800 154.033,288.800 157.581 L 288.800 161.987 299.700 162.094 L 310.600 162.200 310.702 198.900 L 310.804 235.600 320.641 235.600 L 330.478 235.600 330.353 199.300 C 330.284 179.335,330.367 162.775,330.537 162.500 C 330.773 162.119,333.515 162.000,342.024 162.000 L 353.200 162.000 353.200 152.800 L 353.200 143.600 320.400 143.600 L 287.600 143.600 287.600 148.157 M246.200 160.800 C 246.336 161.020,246.870 161.200,247.386 161.200 C 250.222 161.200,254.800 165.639,254.800 168.389 C 254.800 168.809,254.980 169.264,255.200 169.400 C 256.712 170.335,255.223 177.307,253.414 177.761 C 252.856 177.901,252.400 178.288,252.400 178.621 C 252.400 179.411,249.805 182.000,249.013 182.000 C 248.676 182.000,248.400 182.180,248.400 182.400 C 248.400 182.620,247.875 182.800,247.233 182.800 C 246.592 182.800,246.007 182.968,245.933 183.173 C 245.860 183.378,244.450 183.582,242.800 183.628 C 241.150 183.673,239.620 183.841,239.400 184.001 C 239.180 184.161,237.965 184.393,236.700 184.517 L 234.400 184.742 234.400 172.838 C 234.400 166.290,234.520 160.813,234.667 160.667 C 235.103 160.231,245.925 160.356,246.200 160.800 M165.000 162.570 C 172.353 164.348,178.576 170.708,181.077 179.000 C 183.439 186.831,183.582 195.617,181.356 196.175 C 180.548 196.378,180.400 196.662,180.400 198.008 C 180.400 198.883,180.220 199.600,180.000 199.600 C 179.780 199.600,179.600 200.140,179.600 200.800 C 179.600 201.460,179.420 202.000,179.200 202.000 C 178.980 202.000,178.800 202.234,178.800 202.520 C 178.800 203.256,177.859 205.193,177.500 205.197 C 177.335 205.199,177.200 205.520,177.200 205.912 C 177.200 206.303,176.840 206.883,176.400 207.200 C 175.960 207.517,175.600 208.012,175.600 208.299 C 175.600 208.972,172.517 212.031,171.095 212.768 C 170.493 213.080,170.000 213.485,170.000 213.668 C 170.000 213.850,169.640 214.000,169.200 214.000 C 168.760 214.000,168.400 214.180,168.400 214.400 C 168.400 214.620,168.040 214.800,167.600 214.800 C 167.160 214.800,166.800 214.980,166.800 215.200 C 166.800 215.420,166.080 215.600,165.200 215.600 C 164.320 215.600,163.600 215.780,163.600 216.000 C 163.600 216.246,161.600 216.400,158.400 216.400 C 155.200 216.400,153.200 216.246,153.200 216.000 C 153.200 215.780,152.660 215.600,152.000 215.600 C 151.340 215.600,150.800 215.420,150.800 215.200 C 150.800 214.980,150.260 214.800,149.600 214.800 C 148.940 214.800,148.400 214.650,148.400 214.468 C 148.400 214.285,147.905 213.881,147.300 213.570 C 146.695 213.260,145.909 212.689,145.553 212.303 C 145.197 211.916,144.720 211.600,144.493 211.600 C 143.923 211.600,141.200 208.829,141.200 208.248 C 141.200 207.989,140.840 207.517,140.400 207.200 C 139.960 206.883,139.600 206.386,139.600 206.095 C 139.600 205.804,139.240 205.180,138.800 204.708 C 138.360 204.236,138.000 203.433,138.000 202.925 C 138.000 202.416,137.820 202.000,137.600 202.000 C 137.380 202.000,137.200 201.460,137.200 200.800 C 137.200 200.140,137.029 199.600,136.820 199.600 C 136.611 199.600,136.386 198.565,136.320 197.300 C 136.219 195.363,136.089 195.019,135.497 195.118 C 133.426 195.467,133.769 184.047,135.994 178.600 C 138.876 171.543,142.829 166.651,147.424 164.456 C 148.511 163.937,149.713 163.352,150.095 163.156 C 150.477 162.960,151.197 162.797,151.695 162.794 C 152.193 162.791,152.870 162.608,153.200 162.388 C 153.857 161.950,163.019 162.091,165.000 162.570 " stroke="none" fill="#fbb464" fill-rule="evenodd"></path><path id="path2" d="M213.200 194.600 C 213.200 227.453,213.303 236.000,213.700 236.000 C 214.097 236.000,214.179 227.509,214.096 194.600 C 214.029 167.594,213.855 153.200,213.596 153.200 C 213.337 153.200,213.200 167.524,213.200 194.600 M234.972 161.330 C 234.860 161.622,234.822 163.557,234.887 165.630 L 235.006 169.400 235.203 165.099 C 235.398 160.838,235.365 160.304,234.972 161.330 M243.400 161.200 C 245.197 161.657,246.864 161.657,245.800 161.200 C 245.360 161.011,244.370 160.865,243.600 160.875 L 242.200 160.895 243.400 161.200 M247.800 162.087 C 250.225 162.943,252.108 164.571,253.253 166.800 C 253.874 168.010,254.387 168.720,254.391 168.378 C 254.421 166.280,249.535 161.550,247.422 161.632 C 246.799 161.656,246.891 161.766,247.800 162.087 M74.000 167.000 C 74.000 169.530,74.135 171.600,74.300 171.600 C 74.465 171.600,74.600 169.530,74.600 167.000 C 74.600 164.470,74.465 162.400,74.300 162.400 C 74.135 162.400,74.000 164.470,74.000 167.000 M153.676 162.740 C 153.168 162.883,155.408 163.000,158.654 163.000 C 161.899 163.000,164.025 162.886,163.377 162.747 C 161.824 162.414,154.852 162.409,153.676 162.740 M309.400 167.000 C 309.400 169.530,309.535 171.600,309.700 171.600 C 309.865 171.600,310.000 169.530,310.000 167.000 C 310.000 164.470,309.865 162.400,309.700 162.400 C 309.535 162.400,309.400 164.470,309.400 167.000 M330.800 166.776 C 330.800 169.183,330.935 171.236,331.100 171.338 C 331.265 171.440,331.400 169.471,331.400 166.962 C 331.400 164.453,331.265 162.400,331.100 162.400 C 330.935 162.400,330.800 164.369,330.800 166.776 M148.062 164.673 C 142.639 167.380,135.924 176.119,136.014 180.353 C 136.021 180.709,136.539 179.704,137.164 178.121 C 140.025 170.870,144.197 166.444,150.400 164.080 C 151.610 163.619,152.240 163.234,151.800 163.224 C 151.360 163.215,149.678 163.867,148.062 164.673 M164.800 163.354 C 164.800 163.439,165.739 163.815,166.888 164.191 C 171.473 165.690,175.655 169.529,178.297 174.661 C 179.115 176.249,179.850 177.483,179.932 177.402 C 180.431 176.902,176.406 170.427,174.201 168.185 C 171.831 165.775,164.800 162.162,164.800 163.354 M254.468 172.600 C 254.460 174.952,254.575 175.923,254.800 175.400 C 255.228 174.405,255.228 171.335,254.800 170.000 C 254.588 169.338,254.476 170.217,254.468 172.600 M276.495 177.265 C 276.223 177.537,276.007 178.219,276.016 178.780 L 276.032 179.800 276.641 178.676 C 277.337 177.394,277.245 176.515,276.495 177.265 M180.012 178.400 C 180.012 178.730,180.187 179.270,180.400 179.600 C 180.745 180.133,180.788 180.133,180.788 179.600 C 180.788 179.270,180.613 178.730,180.400 178.400 C 180.055 177.867,180.012 177.867,180.012 178.400 M275.400 180.800 C 275.250 181.273,275.217 181.750,275.327 181.860 C 275.437 181.970,275.650 181.673,275.800 181.200 C 275.950 180.727,275.983 180.250,275.873 180.140 C 275.763 180.030,275.550 180.327,275.400 180.800 M180.834 181.000 C 180.872 182.366,181.538 183.642,181.566 182.400 C 181.578 181.850,181.413 181.130,181.200 180.800 C 180.880 180.305,180.816 180.340,180.834 181.000 M135.378 182.578 C 135.227 183.381,135.194 184.127,135.304 184.237 C 135.414 184.347,135.627 183.781,135.778 182.978 C 135.928 182.175,135.962 181.428,135.852 181.318 C 135.742 181.208,135.528 181.775,135.378 182.578 M181.703 187.600 C 181.715 189.690,181.586 191.985,181.417 192.700 C 181.099 194.041,181.693 194.576,182.157 193.367 C 182.492 192.494,182.375 186.467,181.994 185.000 C 181.786 184.198,181.689 185.062,181.703 187.600 M272.877 186.482 C 270.676 190.304,267.215 193.431,262.289 196.045 C 259.013 197.784,258.923 198.082,262.114 196.622 C 267.007 194.384,275.583 185.850,274.265 184.531 C 274.172 184.439,273.548 185.317,272.877 186.482 M134.788 187.400 C 134.654 190.482,134.793 192.519,135.164 192.909 C 135.325 193.079,135.389 191.639,135.306 189.709 C 135.111 185.212,134.921 184.363,134.788 187.400 M111.600 196.000 C 111.600 196.660,111.767 197.200,111.972 197.200 C 112.177 197.200,112.422 197.605,112.518 198.100 C 112.653 198.803,112.702 198.737,112.740 197.800 C 112.802 196.282,112.413 194.800,111.953 194.800 C 111.759 194.800,111.600 195.340,111.600 196.000 M204.243 196.633 C 204.109 196.981,204.001 197.836,204.002 198.533 L 204.005 199.800 204.602 198.654 C 205.267 197.380,205.392 196.000,204.843 196.000 C 204.646 196.000,204.376 196.285,204.243 196.633 M258.401 198.100 C 258.405 199.252,263.623 204.813,264.660 204.768 C 265.228 204.744,265.167 204.645,264.400 204.343 C 263.260 203.894,259.067 199.043,259.067 198.174 C 259.067 197.858,258.917 197.600,258.733 197.600 C 258.550 197.600,258.401 197.825,258.401 198.100 M74.500 199.065 C 73.947 199.288,73.751 208.400,74.300 208.400 C 74.465 208.401,74.600 206.376,74.600 203.900 L 74.600 199.400 89.600 199.193 L 104.600 198.985 89.800 198.924 C 81.660 198.891,74.775 198.954,74.500 199.065 M112.834 200.400 C 112.822 200.950,112.987 201.670,113.200 202.000 C 113.709 202.787,113.709 201.384,113.200 200.200 C 112.885 199.467,112.854 199.484,112.834 200.400 M203.422 201.422 C 203.272 202.225,203.238 202.972,203.348 203.082 C 203.458 203.192,203.672 202.625,203.822 201.822 C 203.973 201.019,204.006 200.273,203.896 200.163 C 203.786 200.053,203.573 200.619,203.422 201.422 M235.067 200.667 C 234.920 200.813,234.837 202.748,234.882 204.967 L 234.965 209.000 235.089 205.400 C 235.266 200.312,235.292 200.298,238.001 203.857 C 239.317 205.586,241.657 208.620,243.201 210.600 C 245.529 213.587,254.165 224.750,261.226 233.900 C 262.118 235.055,263.061 235.997,263.323 235.994 C 263.670 235.989,263.677 235.908,263.348 235.694 C 263.100 235.532,260.670 232.519,257.948 228.997 C 249.781 218.429,249.501 218.068,246.702 214.469 C 245.219 212.561,242.186 208.615,239.964 205.700 C 236.021 200.529,235.618 200.115,235.067 200.667 M113.612 203.800 C 113.612 204.240,113.787 204.870,114.000 205.200 C 114.321 205.697,114.388 205.662,114.388 205.000 C 114.388 204.560,114.213 203.930,114.000 203.600 C 113.679 203.103,113.612 203.138,113.612 203.800 M202.629 204.629 C 202.481 205.215,202.451 205.784,202.561 205.894 C 202.671 206.004,202.881 205.615,203.029 205.029 C 203.176 204.442,203.206 203.873,203.096 203.763 C 202.986 203.653,202.776 204.042,202.629 204.629 M114.412 206.400 C 114.412 206.730,114.587 207.270,114.800 207.600 C 115.145 208.133,115.188 208.133,115.188 207.600 C 115.188 207.270,115.013 206.730,114.800 206.400 C 114.455 205.867,114.412 205.867,114.412 206.400 M201.427 208.236 C 198.147 217.054,189.916 226.880,182.129 231.275 C 180.938 231.947,180.042 232.576,180.138 232.672 C 180.758 233.291,189.028 227.014,192.280 223.455 C 196.648 218.676,202.852 208.355,202.318 206.754 C 202.230 206.489,201.829 207.156,201.427 208.236 M116.000 210.666 C 116.000 211.289,119.457 217.208,121.218 219.600 C 124.413 223.941,134.240 232.694,135.030 231.903 C 135.137 231.797,134.010 230.920,132.526 229.955 C 127.174 226.474,120.911 219.421,117.799 213.372 C 116.360 210.574,116.000 210.033,116.000 210.666 M135.600 232.190 C 135.600 232.495,138.056 233.677,138.262 233.471 C 138.365 233.368,137.871 232.995,137.163 232.642 C 135.776 231.950,135.600 231.899,135.600 232.190 M138.800 233.795 C 138.800 234.061,141.590 235.207,142.149 235.170 C 142.397 235.154,141.880 234.807,141.000 234.400 C 139.309 233.617,138.800 233.477,138.800 233.795 M175.800 234.400 C 174.920 234.807,174.403 235.154,174.651 235.170 C 175.210 235.207,178.000 234.061,178.000 233.795 C 178.000 233.477,177.491 233.617,175.800 234.400 M143.200 235.600 C 143.530 235.813,144.070 235.988,144.400 235.988 C 144.933 235.988,144.933 235.945,144.400 235.600 C 144.070 235.387,143.530 235.212,143.200 235.212 C 142.667 235.212,142.667 235.255,143.200 235.600 M172.400 235.600 C 171.867 235.945,171.867 235.988,172.400 235.988 C 172.730 235.988,173.270 235.813,173.600 235.600 C 174.133 235.255,174.133 235.212,173.600 235.212 C 173.270 235.212,172.730 235.387,172.400 235.600 M146.000 236.400 C 146.330 236.613,147.050 236.773,147.600 236.754 L 148.600 236.720 147.600 236.400 C 146.058 235.906,145.236 235.906,146.000 236.400 M169.200 236.400 L 168.200 236.720 169.200 236.732 C 169.750 236.738,170.560 236.589,171.000 236.400 L 171.800 236.056 171.000 236.068 C 170.560 236.074,169.750 236.224,169.200 236.400 M149.600 237.200 C 150.150 237.376,151.410 237.517,152.400 237.514 L 154.200 237.508 152.600 237.177 C 150.382 236.718,148.149 236.735,149.600 237.200 M164.200 237.200 L 162.600 237.486 164.400 237.503 C 165.390 237.513,166.650 237.376,167.200 237.200 C 168.545 236.769,166.606 236.769,164.200 237.200 M157.905 237.883 C 158.402 237.979,159.122 237.975,159.505 237.875 C 159.887 237.775,159.480 237.696,158.600 237.701 C 157.720 237.705,157.407 237.787,157.905 237.883 " stroke="none" fill="#b6bc9f" fill-rule="evenodd"></path><path id="path3" d="M52.400 194.200 C 52.400 221.533,52.536 235.600,52.800 235.600 C 53.064 235.600,53.200 221.533,53.200 194.200 C 53.200 166.867,53.064 152.800,52.800 152.800 C 52.536 152.800,52.400 166.867,52.400 194.200 M213.498 153.129 C 213.889 153.377,214.018 162.290,214.098 194.622 L 214.200 235.800 224.400 235.810 L 234.600 235.820 224.500 235.703 L 214.400 235.586 214.400 194.193 C 214.400 155.035,214.362 152.800,213.700 152.806 C 213.203 152.810,213.144 152.904,213.498 153.129 M235.060 160.700 C 234.958 160.865,236.252 160.951,237.937 160.892 C 243.311 160.701,243.927 160.536,239.524 160.467 C 237.172 160.430,235.163 160.535,235.060 160.700 M82.527 162.300 C 87.107 162.364,94.487 162.364,98.927 162.299 C 103.367 162.235,99.620 162.183,90.600 162.183 C 81.580 162.183,77.947 162.235,82.527 162.300 M157.905 162.283 C 158.402 162.379,159.122 162.375,159.505 162.275 C 159.887 162.175,159.480 162.096,158.600 162.101 C 157.720 162.105,157.407 162.187,157.905 162.283 M293.124 162.299 C 296.273 162.367,301.313 162.367,304.324 162.299 C 307.336 162.231,304.760 162.176,298.600 162.176 C 292.440 162.176,289.976 162.232,293.124 162.299 M336.724 162.299 C 339.873 162.367,344.913 162.367,347.924 162.299 C 350.936 162.231,348.360 162.176,342.200 162.176 C 336.040 162.176,333.576 162.232,336.724 162.299 M73.782 171.200 C 73.801 180.619,74.496 184.128,74.714 175.900 C 74.784 173.218,74.676 171.600,74.426 171.600 C 74.189 171.600,73.972 169.686,73.895 166.900 C 73.823 164.315,73.772 166.250,73.782 171.200 M310.098 166.900 C 310.040 169.701,309.838 171.600,309.600 171.600 C 309.337 171.600,309.200 182.527,309.200 203.582 L 309.200 235.564 310.500 235.798 C 311.215 235.927,316.030 235.977,321.200 235.909 L 330.600 235.785 320.502 235.692 L 310.404 235.600 310.300 198.900 C 310.243 178.715,310.152 164.315,310.098 166.900 M330.656 169.564 C 330.735 173.174,330.800 189.509,330.800 205.864 C 330.800 225.421,330.937 235.600,331.200 235.600 C 331.738 235.600,331.753 171.913,331.215 171.375 C 331.003 171.163,330.759 169.192,330.671 166.995 C 330.584 164.798,330.577 165.954,330.656 169.564 M276.577 176.567 C 276.150 176.879,275.907 177.240,276.036 177.370 C 276.166 177.499,276.598 177.244,276.998 176.802 C 277.848 175.863,277.673 175.766,276.577 176.567 M134.509 188.000 C 134.509 188.990,134.587 189.395,134.682 188.900 C 134.778 188.405,134.778 187.595,134.682 187.100 C 134.587 186.605,134.509 187.010,134.509 188.000 M134.460 191.876 C 134.427 192.798,134.592 193.671,134.827 193.816 C 135.452 194.203,135.783 193.702,135.292 193.110 C 135.061 192.829,134.792 192.060,134.695 191.400 C 134.552 190.422,134.509 190.510,134.460 191.876 M181.700 193.823 C 181.111 194.463,181.043 195.200,181.573 195.200 C 181.942 195.200,182.599 193.660,182.337 193.410 C 182.261 193.339,181.975 193.525,181.700 193.823 M111.600 194.200 C 111.600 194.530,111.780 194.800,112.000 194.800 C 112.220 194.800,112.400 195.100,112.400 195.467 C 112.400 195.833,112.512 196.022,112.648 195.885 C 113.008 195.525,112.456 193.600,111.992 193.600 C 111.777 193.600,111.600 193.870,111.600 194.200 M204.243 195.433 C 203.823 196.526,203.977 196.880,204.600 196.257 C 204.930 195.927,205.200 195.464,205.200 195.229 C 205.200 194.573,204.517 194.719,204.243 195.433 M73.867 199.067 C 73.720 199.213,73.600 207.493,73.600 217.467 L 73.600 235.600 63.500 235.692 L 53.400 235.785 62.800 235.909 C 67.970 235.977,72.785 235.927,73.500 235.798 L 74.800 235.564 74.800 221.982 C 74.800 213.194,74.659 208.400,74.400 208.400 C 73.777 208.400,73.874 199.318,74.500 199.065 C 74.779 198.952,74.809 198.849,74.567 198.832 C 74.328 198.814,74.013 198.920,73.867 199.067 M126.000 224.600 C 127.195 225.810,128.263 226.800,128.373 226.800 C 128.483 226.800,127.595 225.810,126.400 224.600 C 125.205 223.390,124.137 222.400,124.027 222.400 C 123.917 222.400,124.805 223.390,126.000 224.600 M190.575 224.500 L 189.400 225.800 190.700 224.625 C 191.912 223.530,192.184 223.200,191.875 223.200 C 191.806 223.200,191.221 223.785,190.575 224.500 M268.323 235.899 C 271.031 235.968,275.351 235.968,277.923 235.899 C 280.495 235.829,278.280 235.772,273.000 235.773 C 267.720 235.773,265.615 235.830,268.323 235.899 M156.100 237.496 C 157.365 237.575,159.435 237.575,160.700 237.496 C 161.965 237.416,160.930 237.351,158.400 237.351 C 155.870 237.351,154.835 237.416,156.100 237.496 " stroke="none" fill="#cdba8c" fill-rule="evenodd"></path><path id="path4" d="M52.698 152.692 C 53.089 152.969,53.219 161.956,53.301 194.422 L 53.406 235.800 53.403 194.233 C 53.400 157.626,53.328 152.647,52.800 152.503 C 52.358 152.382,52.331 152.432,52.698 152.692 M105.600 157.400 C 105.600 161.222,105.701 162.000,106.200 162.000 C 106.699 162.000,106.800 161.222,106.800 157.400 C 106.800 153.578,106.699 152.800,106.200 152.800 C 105.701 152.800,105.600 153.578,105.600 157.400 M287.600 157.367 C 287.600 161.263,287.698 162.000,288.213 162.000 C 289.024 162.000,288.915 153.170,288.100 152.899 C 287.719 152.773,287.600 153.838,287.600 157.367 M214.593 194.400 C 214.593 217.170,214.641 226.485,214.700 215.100 C 214.759 203.715,214.759 185.085,214.700 173.700 C 214.641 162.315,214.593 171.630,214.593 194.400 M234.667 160.667 C 234.045 161.289,234.369 184.800,235.000 184.800 C 235.512 184.800,235.600 183.711,235.600 177.400 C 235.600 172.459,235.459 170.000,235.176 170.000 C 234.895 170.000,234.794 168.389,234.876 165.199 C 234.944 162.559,234.985 160.399,234.967 160.399 C 234.948 160.400,234.813 160.520,234.667 160.667 M243.600 160.556 C 243.600 160.642,244.217 160.785,244.972 160.873 C 245.727 160.961,246.256 160.890,246.148 160.716 C 245.955 160.403,243.600 160.255,243.600 160.556 M73.467 162.267 C 73.133 162.600,73.111 179.303,73.443 180.167 C 73.708 180.858,74.800 181.046,74.800 180.400 C 74.800 180.180,74.575 180.045,74.300 180.100 C 73.565 180.247,73.361 162.799,74.092 162.335 C 74.387 162.148,74.418 162.010,74.167 162.006 C 73.928 162.003,73.613 162.120,73.467 162.267 M153.246 162.363 C 152.905 162.579,153.442 162.641,154.646 162.524 C 157.355 162.260,157.733 162.068,155.600 162.038 C 154.610 162.024,153.551 162.170,153.246 162.363 M160.200 162.198 C 161.218 162.543,164.462 162.685,163.954 162.363 C 163.649 162.170,162.590 162.024,161.600 162.038 C 160.610 162.052,159.980 162.124,160.200 162.198 M250.722 162.860 C 251.448 163.325,252.483 164.354,253.022 165.146 C 253.560 165.938,254.000 166.359,254.000 166.082 C 254.000 165.419,250.567 161.998,249.911 162.007 C 249.630 162.010,249.995 162.394,250.722 162.860 M309.898 162.292 C 310.288 162.568,310.419 170.596,310.501 199.222 L 310.606 235.800 310.603 199.033 C 310.600 166.693,310.528 162.247,310.000 162.103 C 309.558 161.982,309.531 162.032,309.898 162.292 M330.532 162.500 C 330.312 162.800,330.269 177.558,330.424 199.400 L 330.682 235.800 330.654 199.400 C 330.639 179.380,330.767 162.775,330.937 162.500 C 331.108 162.225,331.169 162.000,331.073 162.000 C 330.977 162.000,330.733 162.225,330.532 162.500 M171.007 165.453 C 171.883 166.032,173.499 167.337,174.599 168.353 L 176.597 170.200 174.999 168.463 C 173.435 166.764,170.372 164.400,169.735 164.400 C 169.559 164.400,170.131 164.874,171.007 165.453 M143.071 167.700 L 140.534 170.200 142.967 168.027 C 144.305 166.832,145.571 165.707,145.780 165.527 C 145.989 165.347,146.036 165.200,145.884 165.200 C 145.732 165.200,144.466 166.325,143.071 167.700 M255.000 172.802 C 255.000 174.740,255.132 176.118,255.294 175.863 C 255.681 175.253,255.686 169.700,255.300 169.463 C 255.135 169.361,255.000 170.864,255.000 172.802 M178.360 173.400 C 179.034 174.705,179.588 175.428,179.585 175.000 C 179.583 174.780,179.214 174.150,178.764 173.600 C 178.221 172.936,178.085 172.869,178.360 173.400 M137.781 174.437 C 137.429 175.118,137.212 175.745,137.299 175.832 C 137.386 175.919,137.756 175.362,138.122 174.595 C 138.944 172.870,138.659 172.738,137.781 174.437 M275.770 177.019 C 275.624 177.799,275.616 178.549,275.752 178.685 C 275.888 178.822,276.000 178.448,276.000 177.854 C 276.000 177.261,276.270 176.671,276.600 176.545 C 277.368 176.250,277.380 175.600,276.618 175.600 C 276.268 175.600,275.930 176.166,275.770 177.019 M181.444 181.000 C 181.773 182.471,182.002 182.790,181.994 181.767 C 181.991 181.345,181.805 180.730,181.582 180.400 C 181.285 179.962,181.248 180.124,181.444 181.000 M135.049 181.415 C 134.912 181.773,134.818 182.456,134.841 182.933 C 134.867 183.481,135.003 183.286,135.210 182.403 C 135.560 180.916,135.465 180.333,135.049 181.415 M182.338 188.947 C 182.453 193.408,182.372 194.371,181.838 194.905 C 181.055 195.688,181.030 196.000,181.750 196.000 C 182.710 196.000,183.302 186.411,182.472 184.313 C 182.322 183.935,182.262 186.020,182.338 188.947 M134.252 186.100 C 133.523 188.821,134.180 195.200,135.190 195.200 C 135.849 195.200,135.661 194.109,134.955 193.838 C 134.404 193.627,134.332 192.979,134.465 189.395 C 134.632 184.894,134.621 184.725,134.252 186.100 M271.785 187.300 C 271.168 188.235,270.920 188.789,271.232 188.531 C 271.833 188.034,273.364 185.600,273.076 185.600 C 272.983 185.600,272.402 186.365,271.785 187.300 M103.394 189.700 C 103.294 189.975,103.165 192.000,103.106 194.200 L 103.000 198.200 88.600 198.408 L 74.200 198.615 88.676 198.708 C 98.150 198.768,103.240 198.660,103.404 198.393 C 103.542 198.170,103.823 198.091,104.028 198.217 C 104.249 198.354,104.400 196.575,104.400 193.824 C 104.400 189.644,104.003 188.018,103.394 189.700 M268.818 190.934 L 267.437 192.600 269.118 191.019 C 270.043 190.149,270.800 189.384,270.800 189.319 C 270.800 188.859,269.994 189.516,268.818 190.934 M111.600 192.395 C 111.600 192.869,111.870 193.527,112.200 193.857 C 112.536 194.193,112.830 195.280,112.867 196.329 C 112.923 197.873,112.959 197.955,113.075 196.800 C 113.267 194.877,112.695 191.898,112.094 191.698 C 111.804 191.601,111.600 191.889,111.600 192.395 M204.233 193.546 C 204.116 193.736,203.933 194.951,203.827 196.246 C 203.657 198.312,203.673 198.382,203.954 196.821 C 204.131 195.842,204.483 194.972,204.737 194.888 C 205.289 194.704,205.365 193.200,204.824 193.200 C 204.617 193.200,204.351 193.356,204.233 193.546 M258.000 198.612 C 258.000 198.762,258.450 199.419,259.000 200.073 C 259.550 200.727,260.000 201.139,260.000 200.988 C 260.000 200.838,259.550 200.181,259.000 199.527 C 258.450 198.873,258.000 198.461,258.000 198.612 M73.383 199.300 C 73.278 199.575,73.238 207.900,73.296 217.800 L 73.400 235.800 73.600 217.300 C 73.710 207.125,73.749 198.800,73.687 198.800 C 73.626 198.800,73.489 199.025,73.383 199.300 M113.458 200.400 C 113.775 202.125,114.002 202.451,113.994 201.167 C 113.991 200.635,113.811 199.930,113.594 199.600 C 113.318 199.178,113.277 199.415,113.458 200.400 M234.667 199.867 C 234.041 200.492,234.369 235.600,235.000 235.600 C 235.728 235.600,235.925 210.248,235.200 209.800 C 234.318 209.255,234.706 199.882,235.601 200.116 C 236.041 200.231,236.300 200.162,236.177 199.963 C 235.915 199.538,235.050 199.483,234.667 199.867 M203.049 200.615 C 202.912 200.973,202.815 201.566,202.834 201.933 C 202.853 202.300,203.027 202.069,203.221 201.420 C 203.598 200.158,203.465 199.533,203.049 200.615 M238.227 203.100 C 239.267 204.475,240.194 205.600,240.286 205.600 C 240.534 205.600,239.045 203.607,237.597 202.000 C 236.903 201.230,237.186 201.725,238.227 203.100 M114.244 203.800 C 114.573 205.271,114.802 205.590,114.794 204.567 C 114.791 204.145,114.605 203.530,114.382 203.200 C 114.085 202.762,114.048 202.924,114.244 203.800 M262.562 204.300 C 263.027 204.849,263.729 205.179,264.362 205.146 L 265.400 205.091 264.400 204.909 C 263.850 204.809,263.040 204.428,262.600 204.064 C 261.806 203.405,261.806 203.407,262.562 204.300 M117.204 211.800 C 117.205 212.020,117.563 212.740,118.000 213.400 C 119.036 214.964,119.037 214.408,118.001 212.710 C 117.562 211.989,117.204 211.580,117.204 211.800 M246.975 214.532 C 247.591 215.339,248.176 216.000,248.275 216.000 C 248.553 216.000,246.821 213.660,246.309 213.344 C 246.059 213.189,246.359 213.724,246.975 214.532 M119.467 216.006 C 119.859 216.670,120.598 217.705,121.110 218.306 C 121.621 218.908,121.375 218.365,120.563 217.100 C 119.024 214.703,118.228 213.907,119.467 216.006 M196.237 217.100 C 195.425 218.365,195.179 218.908,195.690 218.306 C 196.700 217.118,198.147 214.800,197.879 214.800 C 197.788 214.800,197.049 215.835,196.237 217.100 M251.827 220.700 C 252.867 222.075,253.794 223.200,253.886 223.200 C 254.134 223.200,252.645 221.207,251.197 219.600 C 250.503 218.830,250.786 219.325,251.827 220.700 M190.209 224.130 C 187.254 227.139,186.626 227.907,188.288 226.479 C 190.326 224.728,195.228 219.525,194.740 219.630 C 194.663 219.647,192.624 221.672,190.209 224.130 M126.000 224.132 C 128.424 226.645,131.204 228.897,134.300 230.856 C 136.797 232.436,135.576 231.302,132.775 229.439 C 131.221 228.405,128.476 226.182,126.675 224.498 L 123.400 221.436 126.000 224.132 M257.427 227.900 C 258.467 229.275,259.394 230.400,259.486 230.400 C 259.734 230.400,258.245 228.407,256.797 226.800 C 256.103 226.030,256.386 226.525,257.427 227.900 M184.081 229.372 C 182.223 230.685,181.962 231.061,183.531 230.162 C 184.263 229.743,185.050 229.175,185.280 228.900 C 185.871 228.193,185.593 228.302,184.081 229.372 M136.611 232.134 C 137.496 232.732,138.800 233.258,138.800 233.017 C 138.800 232.837,136.398 231.600,136.050 231.600 C 135.924 231.600,136.177 231.840,136.611 232.134 M146.033 235.744 C 146.125 235.823,146.740 236.008,147.400 236.156 C 148.276 236.352,148.438 236.315,148.000 236.018 C 147.460 235.653,145.632 235.398,146.033 235.744 M168.800 236.018 C 168.362 236.315,168.524 236.352,169.400 236.156 C 170.871 235.827,171.190 235.598,170.167 235.606 C 169.745 235.609,169.130 235.795,168.800 236.018 M150.033 236.546 C 150.125 236.626,151.190 236.794,152.400 236.919 C 153.820 237.066,154.246 237.029,153.600 236.813 C 152.609 236.483,149.713 236.265,150.033 236.546 M163.200 236.807 C 162.579 237.011,163.109 237.051,164.600 236.912 C 165.920 236.789,167.075 236.624,167.167 236.544 C 167.489 236.265,164.188 236.484,163.200 236.807 " stroke="none" fill="#ecb46e" fill-rule="evenodd"></path></g></svg>